<?xml version="1.0" encoding="utf-8"?>
<!-- Generator: Adobe Illustrator 17.0.0, SVG Export Plug-In . SVG Version: 6.00 Build 0)  -->
<!DOCTYPE svg PUBLIC "-//W3C//DTD SVG 1.1//EN" "http://www.w3.org/Graphics/SVG/1.1/DTD/svg11.dtd">
<svg version="1.1"
	 id="svg2" xmlns:dc="http://purl.org/dc/elements/1.1/" xmlns:cc="http://creativecommons.org/ns#" xmlns:rdf="http://www.w3.org/1999/02/22-rdf-syntax-ns#" xmlns:svg="http://www.w3.org/2000/svg" xmlns:sodipodi="http://sodipodi.sourceforge.net/DTD/sodipodi-0.dtd" xmlns:inkscape="http://www.inkscape.org/namespaces/inkscape" sodipodi:docname="Modern Key Style 4.svg" inkscape:version="0.48.5 r10040"
	 xmlns="http://www.w3.org/2000/svg" xmlns:xlink="http://www.w3.org/1999/xlink" x="0px" y="0px" width="512px" height="512px"
	 viewBox="0 0 512 512" enable-background="new 0 0 512 512" xml:space="preserve">
<sodipodi:namedview  fit-margin-left="0" fit-margin-top="0" showgrid="false" inkscape:cy="250.60782" inkscape:cx="97.028442" inkscape:zoom="0.25" borderopacity="1.0" bordercolor="#666666" pagecolor="#ffffff" id="base" inkscape:window-maximized="0" inkscape:window-y="139" inkscape:window-x="1920" inkscape:window-height="1019" inkscape:window-width="1313" fit-margin-bottom="0" inkscape:current-layer="layer1" inkscape:pageshadow="2" inkscape:document-units="px" inkscape:pageopacity="0.0" fit-margin-right="0">
	</sodipodi:namedview>
<rect id="rect3932" x="0" fill="#27285B" width="512" height="512"/>
<g id="g3795" transform="matrix(0.85099977,-0.84824578,0.84824578,0.85099977,-306.64545,222.3403)">
	<path id="path3770" inkscape:connector-curvature="0" fill="#F8FCFB" d="M148.354,266.908c-2.88,3.18-5.315,10.733-7.24,20.964
		c-3.732,0.894-6.505,1.981-8.009,3.264c-6.496,5.54-10.231,35.764-10.098,64.451c0.117,25.312,3.25,49.423,10.098,54.312
		c1.539,1.098,3.964,2.053,7.069,2.869c2.045,10.884,4.878,18.79,8.564,21.743c18.411,14.752,135.488,12.374,167.001-23.991
		c8.561-9.879,14.787-20.568,18.696-31.62l65.829-3.438l3.967-4.657l7.257-0.478l5.106,3.13l24.234-0.973l11.836-5.233l8.593-0.078
		l7.857,2.401l7.08-0.205l5.947-4.387l12.632-0.552l2.999,3.439l10.251-0.001l1.548,1.864l23.155-1.212
		c6.344,0,19.955-10.722,23.26-16.082l0.016-0.016c0.464-0.757,0.737-1.404,0.737-1.9c0.006-0.159,0-0.332-0.017-0.499
		c-0.004-0.036-0.011-0.076-0.016-0.113c-0.017-0.131-0.05-0.267-0.081-0.402c-0.018-0.073-0.043-0.151-0.065-0.225
		c-1.821-6.494-18.203-17.247-23.828-16.778l-25.814-1.342l-2.054,3.801l-10.25,0.741l-4.384-4.08l-11.65,0.727l-4.114,3.354
		l-5.923-0.312l-5.064-6.493l-22.403-1.187l-3.726,4.544l-8.079-0.212l-6.51-5.268l-7.838-0.422l-7.233,5.129l-3.051-5.676
		l-70.217-3.668c-3.909-11.053-10.14-21.743-18.702-31.624c-31.513-36.365-151.571-38.748-166.982-23.997
		C148.611,266.644,148.48,266.769,148.354,266.908z M154.016,314.935c2.349-2.338,6.148-2.329,8.486,0.019
		c1.75,1.758,2.238,4.41,1.228,6.676c-7.759,18.181-7.062,37.749,0.176,59.204c0.894,3.193-0.97,6.506-4.163,7.399
		c-2.952,0.826-6.053-0.705-7.192-3.551c-3.943-11.687-6.174-23.289-6.284-34.637c-0.11-11.347,1.883-22.453,6.432-33.113
		C153,316.185,153.447,315.506,154.016,314.935z"/>
</g>
</svg>
